<svg version="1.1" viewBox="0.0 0.0 100.0 100.0" fill="none" stroke="none" stroke-linecap="square" stroke-miterlimit="10" xmlns:xlink="http://www.w3.org/1999/xlink" xmlns="http://www.w3.org/2000/svg"><clipPath id="p.0"><path d="m0 0l100.0 0l0 100.0l-100.0 0l0 -100.0z" clip-rule="nonzero"/></clipPath><g clip-path="url(#p.0)"><path fill="#000000" fill-opacity="0.0" d="m0 0l100.0 0l0 100.0l-100.0 0z" fill-rule="evenodd"/><path fill="#ffffff" d="m1.496063 50.0l0 0c0 -26.787985 21.715952 -48.503937 48.503937 -48.503937l0 0c12.864044 0 25.20121 5.110222 34.297462 14.206474c9.096252 9.096252 14.206474 21.433418 14.206474 34.297462l0 0c0 26.787987 -21.71595 48.503937 -48.503937 48.503937l0 0c-26.787985 0 -48.503937 -21.71595 -48.503937 -48.503937z" fill-rule="evenodd"/><path stroke="#ffffff" stroke-width="1.0" stroke-linejoin="round" stroke-linecap="butt" d="m1.496063 50.0l0 0c0 -26.787985 21.715952 -48.503937 48.503937 -48.503937l0 0c12.864044 0 25.20121 5.110222 34.297462 14.206474c9.096252 9.096252 14.206474 21.433418 14.206474 34.297462l0 0c0 26.787987 -21.71595 48.503937 -48.503937 48.503937l0 0c-26.787985 0 -48.503937 -21.71595 -48.503937 -48.503937z" fill-rule="evenodd"/><path fill="#1e90ff" d="m8.755905 51.280838l0 0c0 -22.778482 18.46561 -41.244095 41.244095 -41.244095l0 0c10.938614 0 21.429214 4.3453474 29.163979 12.080116c7.7347717 7.734768 12.080116 18.225363 12.080116 29.163977l0 0c0 22.778488 -18.465607 41.244095 -41.244095 41.244095l0 0c-22.778484 0 -41.244095 -18.465607 -41.244095 -41.244095z" fill-rule="evenodd"/><path stroke="#1e90ff" stroke-width="1.0" stroke-linejoin="round" stroke-linecap="butt" d="m8.755905 51.280838l0 0c0 -22.778482 18.46561 -41.244095 41.244095 -41.244095l0 0c10.938614 0 21.429214 4.3453474 29.163979 12.080116c7.7347717 7.734768 12.080116 18.225363 12.080116 29.163977l0 0c0 22.778488 -18.465607 41.244095 -41.244095 41.244095l0 0c-22.778484 0 -41.244095 -18.465607 -41.244095 -41.244095z" fill-rule="evenodd"/><path fill="#9acd32" d="m19.84252 51.280838l0 0c0 -16.664211 13.501963 -30.173227 30.15748 -30.173227l0 0c7.9982605 0 15.668938 3.178957 21.324562 8.837534c5.6556244 5.658577 8.832916 13.333256 8.832916 21.335693l0 0c0 16.664215 -13.501961 30.173233 -30.157478 30.173233l0 0c-16.655518 0 -30.15748 -13.509018 -30.15748 -30.173233z" fill-rule="evenodd"/><path stroke="#ffffff" stroke-width="1.0" stroke-linejoin="round" stroke-linecap="butt" d="m19.84252 51.280838l0 0c0 -16.664211 13.501963 -30.173227 30.15748 -30.173227l0 0c7.9982605 0 15.668938 3.178957 21.324562 8.837534c5.6556244 5.658577 8.832916 13.333256 8.832916 21.335693l0 0c0 16.664215 -13.501961 30.173233 -30.157478 30.173233l0 0c-16.655518 0 -30.15748 -13.509018 -30.15748 -30.173233z" fill-rule="evenodd"/></g></svg>