<svg version="1.1" viewBox="0.0 0.0 100.0 100.0" fill="none" stroke="none" stroke-linecap="square" stroke-miterlimit="10" xmlns:xlink="http://www.w3.org/1999/xlink" xmlns="http://www.w3.org/2000/svg"><clipPath id="p.0"><path d="m0 0l100.0 0l0 100.0l-100.0 0l0 -100.0z" clip-rule="nonzero"/></clipPath><g clip-path="url(#p.0)"><path fill="#000000" fill-opacity="0.0" d="m0 0l100.0 0l0 100.0l-100.0 0z" fill-rule="evenodd"/><path fill="#ffffff" d="m1.496063 50.0l0 0c0 -26.787985 21.715952 -48.503937 48.503937 -48.503937l0 0c12.864044 0 25.20121 5.110222 34.297462 14.206474c9.096252 9.096252 14.206474 21.433418 14.206474 34.297462l0 0c0 26.787987 -21.71595 48.503937 -48.503937 48.503937l0 0c-26.787985 0 -48.503937 -21.71595 -48.503937 -48.503937z" fill-rule="evenodd"/><path stroke="#ffffff" stroke-width="1.0" stroke-linejoin="round" stroke-linecap="butt" d="m1.496063 50.0l0 0c0 -26.787985 21.715952 -48.503937 48.503937 -48.503937l0 0c12.864044 0 25.20121 5.110222 34.297462 14.206474c9.096252 9.096252 14.206474 21.433418 14.206474 34.297462l0 0c0 26.787987 -21.71595 48.503937 -48.503937 48.503937l0 0c-26.787985 0 -48.503937 -21.71595 -48.503937 -48.503937z" fill-rule="evenodd"/><path fill="#1e90ff" d="m12.062992 50.0l0 0c0 -20.95203 16.984978 -37.937008 37.937008 -37.937008l0 0c10.06152 0 19.710945 3.9969234 26.825516 11.111492c7.1145706 7.1145687 11.111488 16.763996 11.111488 26.825516l0 0c0 20.952034 -16.98497 37.937004 -37.937004 37.937004l0 0c-20.95203 0 -37.937008 -16.98497 -37.937008 -37.937004z" fill-rule="evenodd"/><path stroke="#1e90ff" stroke-width="1.0" stroke-linejoin="round" stroke-linecap="butt" d="m12.062992 50.0l0 0c0 -20.95203 16.984978 -37.937008 37.937008 -37.937008l0 0c10.06152 0 19.710945 3.9969234 26.825516 11.111492c7.1145706 7.1145687 11.111488 16.763996 11.111488 26.825516l0 0c0 20.952034 -16.98497 37.937004 -37.937004 37.937004l0 0c-20.95203 0 -37.937008 -16.98497 -37.937008 -37.937004z" fill-rule="evenodd"/><path fill="#9acd32" d="m28.393702 50.0l0 0c0 -11.941528 9.673468 -21.622047 21.606298 -21.622047l0 0c5.7303467 0 11.225994 2.2780304 15.277962 6.3329506c4.051964 4.05492 6.3283386 9.554573 6.3283386 15.289097l0 0c0 11.941528 -9.67347 21.622047 -21.6063 21.622047l0 0c-11.932831 0 -21.606298 -9.680519 -21.606298 -21.622047z" fill-rule="evenodd"/><path stroke="#9acd32" stroke-width="1.0" stroke-linejoin="round" stroke-linecap="butt" d="m28.393702 50.0l0 0c0 -11.941528 9.673468 -21.622047 21.606298 -21.622047l0 0c5.7303467 0 11.225994 2.2780304 15.277962 6.3329506c4.051964 4.05492 6.3283386 9.554573 6.3283386 15.289097l0 0c0 11.941528 -9.67347 21.622047 -21.6063 21.622047l0 0c-11.932831 0 -21.606298 -9.680519 -21.606298 -21.622047z" fill-rule="evenodd"/></g></svg>