<svg version="1.1" viewBox="0.0 0.0 16.0 16.0" fill="none" stroke="none" stroke-linecap="square" stroke-miterlimit="10" xmlns:xlink="http://www.w3.org/1999/xlink" xmlns="http://www.w3.org/2000/svg"><clipPath id="p.0"><path d="m0 0l16.0 0l0 16.0l-16.0 0l0 -16.0z" clip-rule="nonzero"/></clipPath><g clip-path="url(#p.0)"><path fill="#000000" fill-opacity="0.0" d="m0 0l16.0 0l0 16.0l-16.0 0z" fill-rule="evenodd"/><path fill="#000000" fill-opacity="0.0" d="m0 0.48031497l16.0 0l0 15.999999l-16.0 0z" fill-rule="evenodd"/><path fill="#00b4d8" d="m9.516731 15.2003145l0 -0.375q0.640625 -0.03125 0.96875 -0.140625q0.328125 -0.125 0.4375 -0.453125q0.109375 -0.34375 0.109375 -1.015625l0 -9.25q0 -0.6875 -0.109375 -1.015625q-0.109375 -0.328125 -0.4375 -0.4375q-0.328125 -0.125 -0.96875 -0.140625l0 -0.375q0.4375 0.015625 1.078125 0.03125q0.65625 0.015625 1.296875 0.015625q0.71875 0 1.359375 -0.015625q0.640625 -0.015625 1.03125 -0.03125l0 0.375q-0.640625 0.015625 -0.96875 0.140625q-0.328125 0.109375 -0.4375 0.4375q-0.109375 0.328125 -0.109375 1.015625l0 9.25q0 0.671875 0.109375 1.015625q0.109375 0.328125 0.4375 0.453125q0.328125 0.109375 0.96875 0.140625l0 0.375q-0.390625 -0.03125 -1.03125 -0.046875q-0.640625 -0.015625 -1.359375 -0.015625q-0.640625 0 -1.296875 0.015625q-0.640625 0.015625 -1.078125 0.046875zm-7.796875 0l0 -0.375q0.640625 -0.03125 0.96875 -0.140625q0.328125 -0.125 0.4375 -0.453125q0.109375 -0.34375 0.109375 -1.015625l0 -9.25q0 -0.6875 -0.109375 -1.015625q-0.109375 -0.328125 -0.4375 -0.4375q-0.328125 -0.125 -0.96875 -0.140625l0 -0.375q0.390625 0.015625 1.015625 0.03125q0.640625 0.015625 1.375 0.015625q0.65625 0 1.296875 -0.015625q0.640625 -0.015625 1.078125 -0.03125l0 0.375q-0.640625 0.015625 -0.96875 0.140625q-0.328125 0.109375 -0.4375 0.4375q-0.109375 0.328125 -0.109375 1.015625l0 9.25q0 0.671875 0.109375 1.015625q0.109375 0.328125 0.4375 0.453125q0.328125 0.109375 0.96875 0.140625l0 0.375q-0.4375 -0.03125 -1.078125 -0.046875q-0.640625 -0.015625 -1.296875 -0.015625q-0.734375 0 -1.375 0.015625q-0.625 0.015625 -1.015625 0.046875zm2.59375 -6.453125l0 -0.375l7.375 0l0 0.375l-7.375 0z" fill-rule="nonzero"/></g></svg>