<svg version="1.1" viewBox="0.0 0.0 16.0 16.0" fill="none" stroke="none" stroke-linecap="square" stroke-miterlimit="10" xmlns:xlink="http://www.w3.org/1999/xlink" xmlns="http://www.w3.org/2000/svg"><clipPath id="p.0"><path d="m0 0l16.0 0l0 16.0l-16.0 0l0 -16.0z" clip-rule="nonzero"/></clipPath><g clip-path="url(#p.0)"><path fill="#000000" fill-opacity="0.0" d="m0 0l16.0 0l0 16.0l-16.0 0z" fill-rule="evenodd"/><path fill="#000000" fill-opacity="0.0" d="m0 0.48031497l16.0 0l0 15.999999l-16.0 0z" fill-rule="evenodd"/><path fill="#00ff00" d="m2.768814 15.2003145l0 -14.359375l2.015625 0l0 3.5312498l6.578125 0q0.984375 0 1.703125 0.71875q0.71875 0.703125 0.71875 1.71875l0 8.390625l-2.015625 0l0 -8.109375q0 -0.421875 -0.140625 -0.5625q-0.140625 -0.140625 -0.546875 -0.140625l-5.59375 0q-0.421875 0 -0.5625 0.140625q-0.140625 0.140625 -0.140625 0.5625l0 8.109375l-2.015625 0z" fill-rule="nonzero"/></g></svg>