<svg version="1.1" viewBox="0.0 0.0 16.0 16.0" fill="none" stroke="none" stroke-linecap="square" stroke-miterlimit="10" xmlns:xlink="http://www.w3.org/1999/xlink" xmlns="http://www.w3.org/2000/svg"><clipPath id="p.0"><path d="m0 0l16.0 0l0 16.0l-16.0 0l0 -16.0z" clip-rule="nonzero"/></clipPath><g clip-path="url(#p.0)"><path fill="#000000" fill-opacity="0.0" d="m0 0l16.0 0l0 16.0l-16.0 0z" fill-rule="evenodd"/><path fill="#000000" fill-opacity="0.0" d="m0 0.48031497l16.0 0l0 15.999999l-16.0 0z" fill-rule="evenodd"/><path fill="#8efa00" d="m2.768814 15.2003145l0 -14.359375l1.53125 0l0 3.5312498l7.25 0q0.90625 0 1.578125 0.671875q0.671875 0.65625 0.671875 1.59375l0 8.5625l-1.53125 0l0 -8.5625q0 -0.296875 -0.21875 -0.515625q-0.203125 -0.21875 -0.5 -0.21875l-6.5 0q-0.296875 0 -0.53125 0.21875q-0.21875 0.21875 -0.21875 0.515625l0 8.5625l-1.53125 0z" fill-rule="nonzero"/></g></svg>